<svg width="16" height="16" viewBox="0 0 16 16" fill="none" xmlns="http://www.w3.org/2000/svg">
<path d="M6.39502 8.4259C6.39502 8.23458 6.23984 8.07959 6.04836 8.07959H4.83866C4.6474 8.07959 4.49219 8.23458 4.49219 8.4259V9.63545C4.49219 9.82702 4.6474 9.98208 4.83866 9.98208H6.04836C6.23984 9.98208 6.39502 9.82702 6.39502 9.63545V8.4259Z" fill="#BFBFBF"/>
<path d="M9.41854 8.4259C9.41854 8.23458 9.26332 8.07959 9.07222 8.07959H7.86234C7.67109 8.07959 7.51587 8.23458 7.51587 8.4259V9.63545C7.51587 9.82702 7.67109 9.98208 7.86234 9.98208H9.07222C9.26332 9.98208 9.41854 9.82702 9.41854 9.63545V8.4259Z" fill="white"/>
<path d="M12.4419 8.4259C12.4419 8.23458 12.2867 8.07959 12.0954 8.07959H10.8857C10.6942 8.07959 10.5391 8.23458 10.5391 8.4259V9.63545C10.5391 9.82702 10.6942 9.98208 10.8857 9.98208H12.0954C12.2867 9.98208 12.4419 9.82702 12.4419 9.63545V8.4259Z" fill="white"/>
<path d="M6.39502 11.4493C6.39502 11.2577 6.23984 11.1028 6.04836 11.1028H4.83866C4.6474 11.1028 4.49219 11.2577 4.49219 11.4493V12.6586C4.49219 12.8501 4.6474 13.0051 4.83866 13.0051H6.04836C6.23984 13.0051 6.39502 12.85 6.39502 12.6586V11.4493Z" fill="white"/>
<path d="M9.41854 11.4493C9.41854 11.2577 9.26332 11.1028 9.07222 11.1028H7.86234C7.67109 11.1028 7.51587 11.2577 7.51587 11.4493V12.6586C7.51587 12.8501 7.67109 13.0051 7.86234 13.0051H9.07222C9.26332 13.0051 9.41854 12.85 9.41854 12.6586V11.4493Z" fill="white"/>
<path d="M12.4419 11.4493C12.4419 11.2577 12.2867 11.1028 12.0956 11.1028H10.8857C10.6942 11.1028 10.5391 11.2577 10.5391 11.4493V12.6586C10.5391 12.8501 10.6942 13.0051 10.8857 13.0051H12.0956C12.2867 13.0051 12.4419 12.85 12.4419 12.6586V11.4493Z" fill="white"/>
<path d="M14.6049 1.70072V3.54821C14.6049 4.38326 13.9274 5.05617 13.0925 5.05617H12.1385C11.3035 5.05617 10.6171 4.38326 10.6171 3.54821V1.69409H6.31704V3.54821C6.31704 4.38326 5.63067 5.05617 4.79581 5.05617H3.84159C3.00671 5.05617 2.32931 4.38326 2.32931 3.54821V1.70072C1.59961 1.72272 1 2.32652 1 3.06868V13.8958C1 14.6519 1.61285 15.2729 2.36896 15.2729H14.5652C15.3202 15.2729 15.9341 14.6507 15.9341 13.8958V3.06868C15.9341 2.32652 15.3346 1.72272 14.6049 1.70072ZM14.1617 13.2216C14.1617 13.5484 13.8968 13.8135 13.5699 13.8135H3.33816C3.01127 13.8135 2.74634 13.5484 2.74634 13.2216V7.62898C2.74634 7.3021 3.01124 7.03701 3.33816 7.03701H13.5699C13.8968 7.03701 14.1617 7.3021 14.1617 7.62898L14.1617 13.2216Z" fill="white"/>
<path d="M3.83825 4.06557H4.78193C5.06836 4.06557 5.3006 3.83367 5.3006 3.54724V0.518517C5.3006 0.232054 5.06836 0 4.78193 0H3.83825C3.55179 0 3.31958 0.232054 3.31958 0.518517V3.54724C3.31958 3.83367 3.55179 4.06557 3.83825 4.06557Z" fill="white"/>
<path d="M12.1261 4.06557H13.0697C13.356 4.06557 13.5882 3.83367 13.5882 3.54724V0.518517C13.5883 0.232054 13.356 0 13.0697 0H12.1261C11.8397 0 11.6074 0.232054 11.6074 0.518517V3.54724C11.6074 3.83367 11.8397 4.06557 12.1261 4.06557Z" fill="white"/>
</svg>
